IKResults
version=1
nRows=9
nColumns=67
inDegrees=yes

Units are S.I. units (second, meters, Newtons, ...)
Angles are in degrees.

endheader
time	pelvis_tilt	pelvis_list	pelvis_rotation	pelvis_tx	pelvis_ty	pelvis_tz	hip_flexion_r	hip_adduction_r	hip_rotation_r	knee_angle_r	knee_rot_r	knee_adduc_r	ankle_angle_r	ankle_rot_r	ankle_add_r	subtalar_angle_r	mtp_angle_r	mtp_rot_r	mtp_add_r	hip_flexion_l	hip_adduction_l	hip_rotation_l	knee_angle_l	knee_rot_l	knee_adduc_l	ankle_angle_l	ankle_rot_l	ankle_add_l	subtalar_angle_l	mtp_angle_l	mtp_rot_l	mtp_add_l	lumbar_extension	lumbar_bending	lumbar_rotation	neck_flexion	neck_lateral_bending	neck_rotation	arm_flex_r	arm_add_r	arm_rot_r	elbow_flex_r	elbow_rot_r	elbow_add_r	pro_sup_r	wrist_flex_r	wrist_adduc_r	wrist_rot_r	wrist_dev_r	hand_finger_flex_r	hand_finger_adduc_r	hand_finger_rot_r	arm_flex_l	arm_add_l	arm_rot_l	elbow_flex_l	elbow_rot_l	elbow_add_l	pro_sup_l	wrist_flex_l	wrist_adduc_l	wrist_rot_l	wrist_dev_l	hand_finger_flex_l	hand_finger_adduc_l	hand_finger_rot_l
      1.69000000	     12.18511721	      5.70529427	      6.92997534	     -0.50719946	      0.76388175	      0.91065548	    -14.65523415	      3.62494393	      2.43045660	     -5.89358911	     -5.00000000	     -1.85698926	      5.38417917	      0.81284995	      5.00000000	    -11.85797873	     13.95499957	     -2.00000000	     -2.00000000	     14.16421963	      1.03829162	      1.91535219	    -60.38742998	      5.00000000	     -5.00000000	      5.94648120	      4.01590952	      4.09927946	     11.06353031	     29.67374975	      1.99996118	     -1.07093860	    -23.74599768	     -5.46530328	      4.15983169	      0.00000000	      0.00000000	      0.00000000	      0.00000000	      0.00000000	      0.00000000	      0.00000000	      0.00000000	      0.00000000	     -0.00042092	      0.00000000	      0.00000000	      0.00000000	      0.00000000	      0.00000000	      0.00000000	      0.00000000	      0.00000000	      0.00000000	      0.00000000	      0.00000000	      0.00000000	      0.00000000	      0.00000000	      0.00000000	      0.00000000	      0.00000000	      0.00000000	      0.00000000	      0.00000000	      0.00000000
      1.69500000	     12.12876100	      5.62380943	      6.79555645	     -0.50138263	      0.76348825	      0.91079388	    -15.41266620	      3.67249632	      2.47116580	     -5.27916147	     -5.00000000	     -1.78981876	      5.60270052	      0.89459574	      5.00000000	    -11.78645514	     13.94230985	     -2.00000000	     -2.00000000	     14.99758273	      1.19200232	      1.83067914	    -59.20955284	      5.00000000	     -5.00000000	      5.99516806	      3.98004174	      4.08153907	     11.12572931	     29.64454233	      1.99883845	     -1.05787129	    -23.79469538	     -5.31908523	      4.42012659	      0.00000000	      0.00000000	      0.00000000	      0.00000000	      0.00000000	      0.00000000	      0.00000000	      0.00000000	      0.00000000	     -0.00042092	      0.00000000	      0.00000000	      0.00000000	      0.00000000	      0.00000000	      0.00000000	      0.00000000	      0.00000000	      0.00000000	      0.00000000	      0.00000000	      0.00000000	      0.00000000	      0.00000000	      0.00000000	      0.00000000	      0.00000000	      0.00000000	      0.00000000	      0.00000000	      0.00000000
      1.70000000	     12.10448537	      5.67941370	      6.54363908	     -0.49562572	      0.76289616	      0.91123194	    -16.26883652	      3.58926545	      2.46122944	     -4.53006257	     -5.00000000	     -1.79425541	      5.87372106	      1.08976931	      5.00000000	    -11.60738880	     13.90514912	     -2.00000000	     -2.00000000	     15.76125874	      1.43267791	      1.62398620	    -57.99429000	      5.00000000	     -5.00000000	      6.14313651	      4.04481549	      4.05426553	     11.17401864	     29.58209323	      1.99903726	     -1.03049891	    -23.97987991	     -5.54239339	      4.93564571	      0.00000000	      0.00000000	      0.00000000	      0.00000000	      0.00000000	      0.00000000	      0.00000000	      0.00000000	      0.00000000	     -0.00042092	      0.00000000	      0.00000000	      0.00000000	      0.00000000	      0.00000000	      0.00000000	      0.00000000	      0.00000000	      0.00000000	      0.00000000	      0.00000000	      0.00000000	      0.00000000	      0.00000000	      0.00000000	      0.00000000	      0.00000000	      0.00000000	      0.00000000	      0.00000000	      0.00000000
      1.70500000	     12.11824735	      5.70762772	      6.29282974	     -0.48989838	      0.76229283	      0.91149062	    -17.04965603	      3.54792053	      2.49100734	     -4.00462512	     -5.00000000	     -1.80780599	      6.13189228	      1.27279121	      5.00000000	    -11.43887101	     13.86780816	     -2.00000000	     -2.00000000	     16.38609659	      1.67850960	      1.48580331	    -56.58858646	      5.00000000	     -5.00000000	      6.26008575	      4.13526131	      4.01972612	     11.22260690	     29.52246828	      1.99804403	     -1.00409843	    -24.16105286	     -5.59670195	      5.33129142	      0.00000000	      0.00000000	      0.00000000	      0.00000000	      0.00000000	      0.00000000	      0.00000000	      0.00000000	      0.00000000	     -0.00042092	      0.00000000	      0.00000000	      0.00000000	      0.00000000	      0.00000000	      0.00000000	      0.00000000	      0.00000000	      0.00000000	      0.00000000	      0.00000000	      0.00000000	      0.00000000	      0.00000000	      0.00000000	      0.00000000	      0.00000000	      0.00000000	      0.00000000	      0.00000000	      0.00000000
      1.71000000	     12.42830368	      5.88080385	      5.82769982	     -0.48418705	      0.76194402	      0.91195126	    -18.06413701	      3.30687315	      2.44503900	     -3.67089880	     -5.00000000	     -1.77491545	      6.55537595	      1.53957758	      5.00000000	    -11.11135803	     13.74118339	     -2.00000000	     -2.00000000	     16.52845632	      2.02095046	      1.25699904	    -54.92593456	      5.00000000	     -5.00000000	      6.36070101	      4.48380676	      3.97050554	     11.35768867	     29.35493423	      1.99150657	     -0.92907535	    -24.71164495	     -5.88926308	      5.76807190	      0.00000000	      0.00000000	      0.00000000	      0.00000000	      0.00000000	      0.00000000	      0.00000000	      0.00000000	      0.00000000	     -0.00042092	      0.00000000	      0.00000000	      0.00000000	      0.00000000	      0.00000000	      0.00000000	      0.00000000	      0.00000000	      0.00000000	      0.00000000	      0.00000000	      0.00000000	      0.00000000	      0.00000000	      0.00000000	      0.00000000	      0.00000000	      0.00000000	      0.00000000	      0.00000000	      0.00000000
      1.71500000	     12.36728374	      5.72266368	      5.73717365	     -0.47865578	      0.76097473	      0.91208793	    -18.57889466	      3.51312320	      2.51671113	     -3.44512325	     -5.00000000	     -1.78887170	      6.68548417	      1.55667082	      5.00000000	    -11.09427508	     13.73311327	     -2.00000000	     -2.00000000	     17.23110085	      2.09933503	      1.38236187	    -53.43103915	      5.00000000	     -5.00000000	      6.42941721	      4.47165911	      3.93862324	     11.39916907	     29.34030345	      1.98918927	     -0.92213790	    -24.83429058	     -5.67977325	      5.87230756	      0.00000000	      0.00000000	      0.00000000	      0.00000000	      0.00000000	      0.00000000	      0.00000000	      0.00000000	      0.00000000	     -0.00042092	      0.00000000	      0.00000000	      0.00000000	      0.00000000	      0.00000000	      0.00000000	      0.00000000	      0.00000000	      0.00000000	      0.00000000	      0.00000000	      0.00000000	      0.00000000	      0.00000000	      0.00000000	      0.00000000	      0.00000000	      0.00000000	      0.00000000	      0.00000000	      0.00000000
      1.72000000	     12.32489904	      5.61570787	      5.63522084	     -0.47299492	      0.75984765	      0.91225931	    -19.28204602	      3.72083871	      2.69656997	     -2.91284162	     -5.00000000	     -1.90801194	      7.03185115	      1.55711051	      5.00000000	    -11.07938198	     13.70529222	     -2.00000000	     -2.00000000	     17.88239705	      2.28794616	      1.64917953	    -51.90199668	      5.00000000	     -5.00000000	      6.53831116	      4.77066107	      3.92690975	     11.30284053	     29.30158935	      1.98904327	     -0.90508935	    -24.96673557	     -5.60035890	      6.12756700	      0.00000000	      0.00000000	      0.00000000	      0.00000000	      0.00000000	      0.00000000	      0.00000000	      0.00000000	      0.00000000	     -0.00042092	      0.00000000	      0.00000000	      0.00000000	      0.00000000	      0.00000000	      0.00000000	      0.00000000	      0.00000000	      0.00000000	      0.00000000	      0.00000000	      0.00000000	      0.00000000	      0.00000000	      0.00000000	      0.00000000	      0.00000000	      0.00000000	      0.00000000	      0.00000000	      0.00000000
      1.72500000	     12.36682482	      5.51093429	      5.52038808	     -0.46743144	      0.75876880	      0.91235454	    -19.90842707	      3.89947465	      2.87603635	     -2.70696935	     -5.00000000	     -1.95471895	      7.42816033	      1.51608226	      5.00000000	    -11.08539693	     13.66221674	     -2.00000000	     -2.00000000	     18.34615530	      2.47442829	      1.96908869	    -50.19440263	      5.00000000	     -5.00000000	      6.61233988	      5.00000000	      3.90402516	     11.16687937	     29.25008656	      1.98850605	     -0.88233047	    -25.21595802	     -5.46009135	      6.29262102	      0.00000000	      0.00000000	      0.00000000	      0.00000000	      0.00000000	      0.00000000	      0.00000000	      0.00000000	      0.00000000	     -0.00042092	      0.00000000	      0.00000000	      0.00000000	      0.00000000	      0.00000000	      0.00000000	      0.00000000	      0.00000000	      0.00000000	      0.00000000	      0.00000000	      0.00000000	      0.00000000	      0.00000000	      0.00000000	      0.00000000	      0.00000000	      0.00000000	      0.00000000	      0.00000000	      0.00000000
      1.73000000	     12.31528235	      5.30317001	      5.42576226	     -0.46190725	      0.75752070	      0.91247072	    -20.32216740	      4.15710795	      2.92240724	     -2.67538067	     -5.00000000	     -1.93285621	      7.58395502	      1.50256074	      5.00000000	    -11.09409195	     13.65509465	     -2.00000000	     -2.00000000	     18.88605668	      2.46627442	      2.11538865	    -48.44030871	      5.00000000	     -4.95909346	      6.70470838	      5.00000000	      3.87159868	     11.10312105	     29.23707425	      1.98939141	     -0.87680267	    -25.36276997	     -5.22176634	      6.33505605	      0.00000000	      0.00000000	      0.00000000	      0.00000000	      0.00000000	      0.00000000	      0.00000000	      0.00000000	      0.00000000	     -0.00042092	      0.00000000	      0.00000000	      0.00000000	      0.00000000	      0.00000000	      0.00000000	      0.00000000	      0.00000000	      0.00000000	      0.00000000	      0.00000000	      0.00000000	      0.00000000	      0.00000000	      0.00000000	      0.00000000	      0.00000000	      0.00000000	      0.00000000	      0.00000000	      0.00000000
